<svg width="100" height="100" viewBox="0 0 100 100" fill="none" xmlns="http://www.w3.org/2000/svg">
<path d="M79.4266 21.1585C80.996 22.7134 81.0078 25.2462 79.4529 26.8157L62.9081 43.515C59.0467 47.4126 59.0466 53.6935 62.908 57.5911L79.453 74.2913C81.0078 75.8607 80.9959 78.3935 79.4263 79.9482V79.9482C77.8569 81.5028 75.3245 81.4909 73.7698 79.9216L57.4095 63.4075C53.4969 59.458 47.114 59.458 43.2014 63.4075L26.8411 79.9215C25.2865 81.4908 22.754 81.5026 21.1848 79.9479V79.9479C19.6156 78.3933 19.6037 75.861 21.1583 74.2917L37.7027 57.5909C41.5637 53.6933 41.5637 47.4128 37.7026 43.5153L21.1583 26.8152C19.6037 25.246 19.6154 22.7136 21.1845 21.1588V21.1588C22.7539 19.6037 25.2867 19.6155 26.8416 21.185L43.2014 37.6985C47.114 41.648 53.4969 41.648 57.4095 37.6986L73.7694 21.1849C75.3242 19.6154 77.8571 19.6036 79.4266 21.1585V21.1585Z" fill="black"/>
</svg>
