<svg width="100" height="100" viewBox="0 0 100 100" fill="none" xmlns="http://www.w3.org/2000/svg">
<path fill-rule="evenodd" clip-rule="evenodd" d="M80 28.5C80 30.7091 78.2091 32.5 76 32.5H24C21.7909 32.5 20 30.7091 20 28.5C20 26.2909 21.7909 24.5 24 24.5H76C78.2091 24.5 80 26.2909 80 28.5ZM80 50.5C80 52.7091 78.2091 54.5 76 54.5H24C21.7909 54.5 20 52.7091 20 50.5C20 48.2909 21.7909 46.5 24 46.5H76C78.2091 46.5 80 48.2909 80 50.5ZM80 73.5C80 75.7091 78.2091 77.5 76 77.5H24C21.7909 77.5 20 75.7091 20 73.5C20 71.2909 21.7909 69.5 24 69.5H76C78.2091 69.5 80 71.2909 80 73.5Z" fill="black"/>
</svg>
