<svg width="100" height="100" viewBox="0 0 100 100" fill="none" xmlns="http://www.w3.org/2000/svg">
<path fill-rule="evenodd" clip-rule="evenodd" d="M73.3258 19.5858L80.3969 26.6569C81.1779 27.4379 81.1779 28.7042 80.3969 29.4853L69.8022 40.08L69.7903 40.0919L65.5477 44.3345L58.6181 51.2642C62.5008 53.8366 67.7836 53.4123 71.2045 49.9914L86.0538 35.1421C89.959 31.2369 89.959 24.9052 86.0538 21L78.9827 13.9289C75.0774 10.0237 68.7458 10.0237 64.8406 13.9289L49.9913 28.7782C46.5704 32.1991 46.1461 37.4819 48.7186 41.3647L55.6422 34.4411L55.6482 34.435L59.8908 30.1924L70.4974 19.5858C71.2785 18.8047 72.5448 18.8047 73.3258 19.5858ZM56.3553 37.9706L59.1837 35.1421C60.7458 33.58 63.2785 33.58 64.8406 35.1421C66.4027 36.7042 66.4027 39.2368 64.8406 40.7989L62.0121 43.6274L56.3553 49.2843L49.2842 56.3553L43.6274 62.0122L40.7989 64.8406C39.2368 66.4027 36.7042 66.4027 35.1421 64.8406C33.58 63.2785 33.58 60.7458 35.1421 59.1837L37.9705 56.3553L43.6274 50.6985L50.6984 43.6274L56.3553 37.9706ZM28.7782 49.9914C32.1991 46.5705 37.4819 46.1462 41.3646 48.7186L34.435 55.6483L30.1923 59.8909L30.1747 59.9086L19.5858 70.4975C18.8047 71.2785 18.8047 72.5449 19.5858 73.3259L26.6569 80.397C27.4379 81.178 28.7042 81.178 29.4853 80.397L40.0918 69.7904L44.3345 65.5478L44.3441 65.5381L51.2641 58.6181C53.8366 62.5008 53.4123 67.7837 49.9914 71.2046L35.1421 86.0538C31.2369 89.9591 24.9052 89.9591 21 86.0538L13.9289 78.9828C10.0237 75.0775 10.0237 68.7459 13.9289 64.8406L28.7782 49.9914Z" fill="black"/>
</svg>
