<svg width="100" height="100" viewBox="0 0 100 100" fill="none" xmlns="http://www.w3.org/2000/svg">
<path fill-rule="evenodd" clip-rule="evenodd" d="M51.5534 10.1499C49.3442 10.1499 47.5534 11.9408 47.5534 14.1499C47.5534 16.3591 49.3442 18.1499 51.5534 18.1499L76.1056 18.1499L48.2761 45.9794C46.714 47.5415 46.714 50.0742 48.2761 51.6363C49.8382 53.1983 52.3709 53.1983 53.933 51.6363L81.7625 23.8068L81.7624 48.359C81.7624 50.5681 83.5533 52.359 85.7624 52.359C87.9716 52.359 89.7624 50.5681 89.7625 48.359L89.7625 14.1499C89.7625 13.089 89.341 12.0716 88.5909 11.3215C87.8407 10.5713 86.8233 10.1499 85.7625 10.1499L51.5534 10.1499ZM22 34.1499C22 30.8362 24.6863 28.1499 28 28.1499H37.2125C39.4216 28.1499 41.2125 26.3591 41.2125 24.1499C41.2125 21.9408 39.4216 20.1499 37.2125 20.1499H28C20.268 20.1499 14 26.4179 14 34.1499V72.1499C14 79.8819 20.268 86.1499 28 86.1499H66C73.732 86.1499 80 79.8819 80 72.1499V63.2999C80 61.0908 78.2091 59.2999 76 59.2999C73.7909 59.2999 72 61.0908 72 63.2999V72.1499C72 75.4636 69.3137 78.1499 66 78.1499H28C24.6863 78.1499 22 75.4636 22 72.1499V34.1499Z" fill="black"/>
</svg>
